<mxfile host="app.diagrams.net" modified="2023-10-23T17:09:47.732Z" agent="Mozilla/5.0 (Windows NT 10.0; Win64; x64) AppleWebKit/537.36 (KHTML, like Gecko) Chrome/118.0.0.0 Safari/537.36" etag="ftACTOC5GzC5VQh-whp5" version="22.0.6" type="device">
  <diagram name="Page-1" id="ze_BFOVCZ0946O6Zip4w">
    <mxGraphModel dx="2155" dy="1191" grid="1" gridSize="10" guides="1" tooltips="1" connect="1" arrows="1" fold="1" page="1" pageScale="1" pageWidth="850" pageHeight="1100" math="0" shadow="0">
      <root>
        <mxCell id="0" />
        <mxCell id="1" parent="0" />
        <mxCell id="xXA_M8LPOf2HpQks0UbA-65" value="" style="rounded=0;whiteSpace=wrap;html=1;dashed=1;" vertex="1" parent="1">
          <mxGeometry x="10" y="70" width="710" height="140" as="geometry" />
        </mxCell>
        <mxCell id="xXA_M8LPOf2HpQks0UbA-52" value="" style="rounded=0;whiteSpace=wrap;html=1;dashed=1;" vertex="1" parent="1">
          <mxGeometry x="70" y="600" width="300" height="260" as="geometry" />
        </mxCell>
        <mxCell id="xXA_M8LPOf2HpQks0UbA-14" value="" style="rounded=0;whiteSpace=wrap;html=1;dashed=1;" vertex="1" parent="1">
          <mxGeometry x="10" y="280" width="320" height="240" as="geometry" />
        </mxCell>
        <mxCell id="xXA_M8LPOf2HpQks0UbA-13" value="" style="group" vertex="1" connectable="0" parent="1">
          <mxGeometry x="10" y="320" width="320" height="160" as="geometry" />
        </mxCell>
        <mxCell id="xXA_M8LPOf2HpQks0UbA-3" value="" style="curved=1;endArrow=classic;html=1;rounded=0;" edge="1" parent="xXA_M8LPOf2HpQks0UbA-13">
          <mxGeometry width="50" height="50" relative="1" as="geometry">
            <mxPoint x="40" y="40" as="sourcePoint" />
            <mxPoint x="280" y="40" as="targetPoint" />
            <Array as="points">
              <mxPoint x="40" />
              <mxPoint x="280" />
            </Array>
          </mxGeometry>
        </mxCell>
        <mxCell id="xXA_M8LPOf2HpQks0UbA-4" value="" style="curved=1;endArrow=classic;html=1;rounded=0;" edge="1" parent="xXA_M8LPOf2HpQks0UbA-13">
          <mxGeometry width="50" height="50" relative="1" as="geometry">
            <mxPoint x="40" y="40" as="sourcePoint" />
            <mxPoint x="160" y="40" as="targetPoint" />
            <Array as="points">
              <mxPoint x="40" />
              <mxPoint x="160" />
            </Array>
          </mxGeometry>
        </mxCell>
        <mxCell id="xXA_M8LPOf2HpQks0UbA-5" value="" style="curved=1;endArrow=none;html=1;rounded=0;strokeColor=default;endFill=0;startArrow=classic;startFill=1;" edge="1" parent="xXA_M8LPOf2HpQks0UbA-13">
          <mxGeometry width="50" height="50" relative="1" as="geometry">
            <mxPoint x="40" y="80" as="sourcePoint" />
            <mxPoint x="280" y="80" as="targetPoint" />
            <Array as="points">
              <mxPoint x="40" y="160" />
              <mxPoint x="160" y="160" />
              <mxPoint x="280" y="160" />
            </Array>
          </mxGeometry>
        </mxCell>
        <mxCell id="xXA_M8LPOf2HpQks0UbA-6" value="" style="curved=1;endArrow=none;html=1;rounded=0;startArrow=classic;startFill=1;endFill=0;" edge="1" parent="xXA_M8LPOf2HpQks0UbA-13">
          <mxGeometry width="50" height="50" relative="1" as="geometry">
            <mxPoint x="40" y="80" as="sourcePoint" />
            <mxPoint x="160" y="80" as="targetPoint" />
            <Array as="points">
              <mxPoint x="40" y="160" />
              <mxPoint x="160" y="160" />
            </Array>
          </mxGeometry>
        </mxCell>
        <mxCell id="xXA_M8LPOf2HpQks0UbA-8" value="" style="curved=1;endArrow=none;html=1;rounded=0;startArrow=classic;startFill=1;endFill=0;" edge="1" parent="xXA_M8LPOf2HpQks0UbA-13">
          <mxGeometry width="50" height="50" relative="1" as="geometry">
            <mxPoint x="30" y="80" as="sourcePoint" />
            <mxPoint x="160" y="80" as="targetPoint" />
            <Array as="points">
              <mxPoint y="130" />
              <mxPoint x="160" y="130" />
            </Array>
          </mxGeometry>
        </mxCell>
        <mxCell id="xXA_M8LPOf2HpQks0UbA-9" value="" style="curved=1;endArrow=none;html=1;rounded=0;startArrow=classic;startFill=1;endFill=0;" edge="1" parent="xXA_M8LPOf2HpQks0UbA-13">
          <mxGeometry width="50" height="50" relative="1" as="geometry">
            <mxPoint x="290" y="80" as="sourcePoint" />
            <mxPoint x="160" y="80" as="targetPoint" />
            <Array as="points">
              <mxPoint x="320" y="130" />
              <mxPoint x="160" y="130" />
            </Array>
          </mxGeometry>
        </mxCell>
        <mxCell id="xXA_M8LPOf2HpQks0UbA-10" value="fd0" style="ellipse;whiteSpace=wrap;html=1;" vertex="1" parent="xXA_M8LPOf2HpQks0UbA-13">
          <mxGeometry x="20" y="40" width="40" height="40" as="geometry" />
        </mxCell>
        <mxCell id="xXA_M8LPOf2HpQks0UbA-11" value="fd1" style="ellipse;whiteSpace=wrap;html=1;" vertex="1" parent="xXA_M8LPOf2HpQks0UbA-13">
          <mxGeometry x="140" y="40" width="40" height="40" as="geometry" />
        </mxCell>
        <mxCell id="xXA_M8LPOf2HpQks0UbA-12" value="fd2" style="ellipse;whiteSpace=wrap;html=1;" vertex="1" parent="xXA_M8LPOf2HpQks0UbA-13">
          <mxGeometry x="260" y="40" width="40" height="40" as="geometry" />
        </mxCell>
        <mxCell id="xXA_M8LPOf2HpQks0UbA-15" value="m0" style="ellipse;whiteSpace=wrap;html=1;" vertex="1" parent="1">
          <mxGeometry x="120" y="700" width="40" height="40" as="geometry" />
        </mxCell>
        <mxCell id="xXA_M8LPOf2HpQks0UbA-18" value="s0" style="ellipse;whiteSpace=wrap;html=1;" vertex="1" parent="1">
          <mxGeometry x="120" y="800" width="40" height="40" as="geometry" />
        </mxCell>
        <mxCell id="xXA_M8LPOf2HpQks0UbA-21" value="" style="endArrow=classic;startArrow=classic;html=1;rounded=0;entryX=0.5;entryY=1;entryDx=0;entryDy=0;exitX=0.5;exitY=0;exitDx=0;exitDy=0;" edge="1" parent="1" source="xXA_M8LPOf2HpQks0UbA-18" target="xXA_M8LPOf2HpQks0UbA-15">
          <mxGeometry width="50" height="50" relative="1" as="geometry">
            <mxPoint x="50" y="820" as="sourcePoint" />
            <mxPoint x="100" y="770" as="targetPoint" />
          </mxGeometry>
        </mxCell>
        <mxCell id="xXA_M8LPOf2HpQks0UbA-22" value="PTY" style="edgeLabel;html=1;align=center;verticalAlign=middle;resizable=0;points=[];" vertex="1" connectable="0" parent="xXA_M8LPOf2HpQks0UbA-21">
          <mxGeometry x="0.0843" relative="1" as="geometry">
            <mxPoint as="offset" />
          </mxGeometry>
        </mxCell>
        <mxCell id="xXA_M8LPOf2HpQks0UbA-23" value="m1" style="ellipse;whiteSpace=wrap;html=1;" vertex="1" parent="1">
          <mxGeometry x="200" y="700" width="40" height="40" as="geometry" />
        </mxCell>
        <mxCell id="xXA_M8LPOf2HpQks0UbA-24" value="s1" style="ellipse;whiteSpace=wrap;html=1;" vertex="1" parent="1">
          <mxGeometry x="200" y="800" width="40" height="40" as="geometry" />
        </mxCell>
        <mxCell id="xXA_M8LPOf2HpQks0UbA-25" value="" style="endArrow=classic;startArrow=classic;html=1;rounded=0;entryX=0.5;entryY=1;entryDx=0;entryDy=0;exitX=0.5;exitY=0;exitDx=0;exitDy=0;" edge="1" source="xXA_M8LPOf2HpQks0UbA-24" target="xXA_M8LPOf2HpQks0UbA-23" parent="1">
          <mxGeometry width="50" height="50" relative="1" as="geometry">
            <mxPoint x="130" y="820" as="sourcePoint" />
            <mxPoint x="180" y="770" as="targetPoint" />
          </mxGeometry>
        </mxCell>
        <mxCell id="xXA_M8LPOf2HpQks0UbA-26" value="PTY" style="edgeLabel;html=1;align=center;verticalAlign=middle;resizable=0;points=[];" vertex="1" connectable="0" parent="xXA_M8LPOf2HpQks0UbA-25">
          <mxGeometry x="0.0843" relative="1" as="geometry">
            <mxPoint as="offset" />
          </mxGeometry>
        </mxCell>
        <mxCell id="xXA_M8LPOf2HpQks0UbA-27" value="m0" style="ellipse;whiteSpace=wrap;html=1;" vertex="1" parent="1">
          <mxGeometry x="280" y="700" width="40" height="40" as="geometry" />
        </mxCell>
        <mxCell id="xXA_M8LPOf2HpQks0UbA-28" value="s2" style="ellipse;whiteSpace=wrap;html=1;" vertex="1" parent="1">
          <mxGeometry x="280" y="800" width="40" height="40" as="geometry" />
        </mxCell>
        <mxCell id="xXA_M8LPOf2HpQks0UbA-29" value="" style="endArrow=classic;startArrow=classic;html=1;rounded=0;entryX=0.5;entryY=1;entryDx=0;entryDy=0;exitX=0.5;exitY=0;exitDx=0;exitDy=0;" edge="1" source="xXA_M8LPOf2HpQks0UbA-28" target="xXA_M8LPOf2HpQks0UbA-27" parent="1">
          <mxGeometry width="50" height="50" relative="1" as="geometry">
            <mxPoint x="210" y="820" as="sourcePoint" />
            <mxPoint x="260" y="770" as="targetPoint" />
          </mxGeometry>
        </mxCell>
        <mxCell id="xXA_M8LPOf2HpQks0UbA-30" value="PTY" style="edgeLabel;html=1;align=center;verticalAlign=middle;resizable=0;points=[];" vertex="1" connectable="0" parent="xXA_M8LPOf2HpQks0UbA-29">
          <mxGeometry x="0.0843" relative="1" as="geometry">
            <mxPoint as="offset" />
          </mxGeometry>
        </mxCell>
        <mxCell id="xXA_M8LPOf2HpQks0UbA-31" value="FdBus" style="text;html=1;align=center;verticalAlign=middle;resizable=0;points=[];autosize=1;strokeColor=none;fillColor=none;" vertex="1" parent="1">
          <mxGeometry x="10" y="250" width="60" height="30" as="geometry" />
        </mxCell>
        <mxCell id="xXA_M8LPOf2HpQks0UbA-32" value="FdBus" style="rounded=0;whiteSpace=wrap;html=1;" vertex="1" parent="1">
          <mxGeometry x="120" y="640" width="200" height="20" as="geometry" />
        </mxCell>
        <mxCell id="xXA_M8LPOf2HpQks0UbA-40" value="" style="endArrow=classic;startArrow=classic;html=1;rounded=0;" edge="1" parent="1">
          <mxGeometry width="50" height="50" relative="1" as="geometry">
            <mxPoint x="139.70999999999998" y="700" as="sourcePoint" />
            <mxPoint x="139.70999999999998" y="660" as="targetPoint" />
          </mxGeometry>
        </mxCell>
        <mxCell id="xXA_M8LPOf2HpQks0UbA-41" value="" style="endArrow=classic;startArrow=classic;html=1;rounded=0;" edge="1" parent="1">
          <mxGeometry width="50" height="50" relative="1" as="geometry">
            <mxPoint x="219.70999999999998" y="700" as="sourcePoint" />
            <mxPoint x="219.70999999999998" y="660" as="targetPoint" />
          </mxGeometry>
        </mxCell>
        <mxCell id="xXA_M8LPOf2HpQks0UbA-42" value="" style="endArrow=classic;startArrow=classic;html=1;rounded=0;" edge="1" parent="1">
          <mxGeometry width="50" height="50" relative="1" as="geometry">
            <mxPoint x="299.71000000000004" y="700" as="sourcePoint" />
            <mxPoint x="299.71000000000004" y="660" as="targetPoint" />
          </mxGeometry>
        </mxCell>
        <mxCell id="xXA_M8LPOf2HpQks0UbA-43" value="App 0" style="swimlane;whiteSpace=wrap;html=1;" vertex="1" parent="1">
          <mxGeometry x="10" y="921" width="110" height="100" as="geometry" />
        </mxCell>
        <mxCell id="xXA_M8LPOf2HpQks0UbA-44" value="App 1" style="swimlane;whiteSpace=wrap;html=1;" vertex="1" parent="1">
          <mxGeometry x="165" y="921" width="110" height="100" as="geometry" />
        </mxCell>
        <mxCell id="xXA_M8LPOf2HpQks0UbA-45" value="App 2" style="swimlane;whiteSpace=wrap;html=1;" vertex="1" parent="1">
          <mxGeometry x="320" y="921" width="110" height="100" as="geometry" />
        </mxCell>
        <mxCell id="xXA_M8LPOf2HpQks0UbA-46" value="" style="endArrow=classic;startArrow=classic;html=1;rounded=0;exitX=0.5;exitY=0;exitDx=0;exitDy=0;entryX=0.5;entryY=1;entryDx=0;entryDy=0;" edge="1" parent="1" source="xXA_M8LPOf2HpQks0UbA-43" target="xXA_M8LPOf2HpQks0UbA-18">
          <mxGeometry width="50" height="50" relative="1" as="geometry">
            <mxPoint x="20" y="800" as="sourcePoint" />
            <mxPoint x="70" y="750" as="targetPoint" />
          </mxGeometry>
        </mxCell>
        <mxCell id="xXA_M8LPOf2HpQks0UbA-49" value="tty" style="edgeLabel;html=1;align=center;verticalAlign=middle;resizable=0;points=[];" vertex="1" connectable="0" parent="xXA_M8LPOf2HpQks0UbA-46">
          <mxGeometry x="-0.012" y="2" relative="1" as="geometry">
            <mxPoint as="offset" />
          </mxGeometry>
        </mxCell>
        <mxCell id="xXA_M8LPOf2HpQks0UbA-47" value="" style="endArrow=classic;startArrow=classic;html=1;rounded=0;exitX=0.5;exitY=0;exitDx=0;exitDy=0;entryX=0.5;entryY=1;entryDx=0;entryDy=0;" edge="1" parent="1" source="xXA_M8LPOf2HpQks0UbA-45" target="xXA_M8LPOf2HpQks0UbA-28">
          <mxGeometry width="50" height="50" relative="1" as="geometry">
            <mxPoint x="490" y="810" as="sourcePoint" />
            <mxPoint x="545" y="750" as="targetPoint" />
          </mxGeometry>
        </mxCell>
        <mxCell id="xXA_M8LPOf2HpQks0UbA-51" value="tty" style="edgeLabel;html=1;align=center;verticalAlign=middle;resizable=0;points=[];" vertex="1" connectable="0" parent="xXA_M8LPOf2HpQks0UbA-47">
          <mxGeometry x="0.0379" y="-1" relative="1" as="geometry">
            <mxPoint as="offset" />
          </mxGeometry>
        </mxCell>
        <mxCell id="xXA_M8LPOf2HpQks0UbA-48" value="" style="endArrow=classic;startArrow=classic;html=1;rounded=0;exitX=0.5;exitY=1;exitDx=0;exitDy=0;entryX=0.5;entryY=0;entryDx=0;entryDy=0;" edge="1" parent="1" source="xXA_M8LPOf2HpQks0UbA-24" target="xXA_M8LPOf2HpQks0UbA-44">
          <mxGeometry width="50" height="50" relative="1" as="geometry">
            <mxPoint x="385" y="890" as="sourcePoint" />
            <mxPoint x="330" y="830" as="targetPoint" />
          </mxGeometry>
        </mxCell>
        <mxCell id="xXA_M8LPOf2HpQks0UbA-50" value="tty" style="edgeLabel;html=1;align=center;verticalAlign=middle;resizable=0;points=[];" vertex="1" connectable="0" parent="xXA_M8LPOf2HpQks0UbA-48">
          <mxGeometry x="0.0929" y="2" relative="1" as="geometry">
            <mxPoint as="offset" />
          </mxGeometry>
        </mxCell>
        <mxCell id="xXA_M8LPOf2HpQks0UbA-53" value="PtyBus" style="text;html=1;align=center;verticalAlign=middle;resizable=0;points=[];autosize=1;strokeColor=none;fillColor=none;" vertex="1" parent="1">
          <mxGeometry x="70" y="570" width="60" height="30" as="geometry" />
        </mxCell>
        <mxCell id="xXA_M8LPOf2HpQks0UbA-54" value="TCP Socket" style="rounded=0;whiteSpace=wrap;html=1;" vertex="1" parent="1">
          <mxGeometry x="330" y="110" width="70" height="60" as="geometry" />
        </mxCell>
        <mxCell id="xXA_M8LPOf2HpQks0UbA-55" value="com2tcp&lt;br&gt;OR&lt;br&gt;so2tty" style="rounded=0;whiteSpace=wrap;html=1;" vertex="1" parent="1">
          <mxGeometry x="160" y="110" width="120" height="60" as="geometry" />
        </mxCell>
        <mxCell id="xXA_M8LPOf2HpQks0UbA-58" value="Serial Port" style="ellipse;whiteSpace=wrap;html=1;aspect=fixed;" vertex="1" parent="1">
          <mxGeometry x="30" y="100" width="80" height="80" as="geometry" />
        </mxCell>
        <mxCell id="xXA_M8LPOf2HpQks0UbA-59" value="Serial Port" style="ellipse;whiteSpace=wrap;html=1;aspect=fixed;" vertex="1" parent="1">
          <mxGeometry x="620" y="100" width="80" height="80" as="geometry" />
        </mxCell>
        <mxCell id="xXA_M8LPOf2HpQks0UbA-60" value="com2tcp&lt;br&gt;OR&lt;br&gt;so2tty" style="rounded=0;whiteSpace=wrap;html=1;" vertex="1" parent="1">
          <mxGeometry x="450" y="110" width="120" height="60" as="geometry" />
        </mxCell>
        <mxCell id="xXA_M8LPOf2HpQks0UbA-61" value="" style="endArrow=classic;startArrow=classic;html=1;rounded=0;exitX=1;exitY=0.5;exitDx=0;exitDy=0;entryX=0;entryY=0.5;entryDx=0;entryDy=0;" edge="1" parent="1" source="xXA_M8LPOf2HpQks0UbA-58" target="xXA_M8LPOf2HpQks0UbA-55">
          <mxGeometry width="50" height="50" relative="1" as="geometry">
            <mxPoint x="540" y="240" as="sourcePoint" />
            <mxPoint x="590" y="190" as="targetPoint" />
          </mxGeometry>
        </mxCell>
        <mxCell id="xXA_M8LPOf2HpQks0UbA-62" value="" style="endArrow=classic;startArrow=classic;html=1;rounded=0;exitX=1;exitY=0.5;exitDx=0;exitDy=0;entryX=0;entryY=0.5;entryDx=0;entryDy=0;" edge="1" parent="1" source="xXA_M8LPOf2HpQks0UbA-55" target="xXA_M8LPOf2HpQks0UbA-54">
          <mxGeometry width="50" height="50" relative="1" as="geometry">
            <mxPoint x="120" y="150" as="sourcePoint" />
            <mxPoint x="170" y="150" as="targetPoint" />
          </mxGeometry>
        </mxCell>
        <mxCell id="xXA_M8LPOf2HpQks0UbA-63" value="" style="endArrow=classic;startArrow=classic;html=1;rounded=0;exitX=1;exitY=0.5;exitDx=0;exitDy=0;entryX=0;entryY=0.5;entryDx=0;entryDy=0;" edge="1" parent="1" source="xXA_M8LPOf2HpQks0UbA-54" target="xXA_M8LPOf2HpQks0UbA-60">
          <mxGeometry width="50" height="50" relative="1" as="geometry">
            <mxPoint x="290" y="150" as="sourcePoint" />
            <mxPoint x="340" y="150" as="targetPoint" />
          </mxGeometry>
        </mxCell>
        <mxCell id="xXA_M8LPOf2HpQks0UbA-64" value="" style="endArrow=classic;startArrow=classic;html=1;rounded=0;exitX=1;exitY=0.5;exitDx=0;exitDy=0;entryX=0;entryY=0.5;entryDx=0;entryDy=0;" edge="1" parent="1" source="xXA_M8LPOf2HpQks0UbA-60" target="xXA_M8LPOf2HpQks0UbA-59">
          <mxGeometry width="50" height="50" relative="1" as="geometry">
            <mxPoint x="410" y="150" as="sourcePoint" />
            <mxPoint x="460" y="150" as="targetPoint" />
          </mxGeometry>
        </mxCell>
        <mxCell id="xXA_M8LPOf2HpQks0UbA-66" value="com2tcp, so2tty" style="text;html=1;align=center;verticalAlign=middle;resizable=0;points=[];autosize=1;strokeColor=none;fillColor=none;" vertex="1" parent="1">
          <mxGeometry x="10" y="40" width="110" height="30" as="geometry" />
        </mxCell>
      </root>
    </mxGraphModel>
  </diagram>
</mxfile>
